<svg width="26" height="26" fill="none" xmlns="http://www.w3.org/2000/svg"><path d="M12.998 0C7.95 0 3.844 4.171 3.844 9.298v7.404C3.844 21.83 7.95 26 12.998 26s9.155-4.158 9.155-9.27V9.299C22.153 4.171 18.046 0 12.998 0z" fill="#fff"/><path d="M12.998 0C7.95 0 3.844 4.171 3.844 9.298v7.404C3.844 21.83 7.95 26 12.998 26s9.155-4.158 9.155-9.27V9.299C22.153 4.171 18.046 0 12.998 0zm7.268 16.702c0 4.162-3.17 7.348-7.268 7.348s-7.304-3.17-7.304-7.348V9.298c0-4.178 3.206-7.348 7.304-7.348 4.099 0 7.268 3.17 7.268 7.348v7.404z" fill="#000E4B"/><path d="M12.998 7.117a.86.86 0 00-.861.86v3.014a.861.861 0 101.722 0V7.978a.86.86 0 00-.861-.861z" fill="#000E4B"/></svg>