<svg width="26" height="26" viewBox="0 0 26 26" fill="none" xmlns="http://www.w3.org/2000/svg">
<path d="M12.9983 0C7.95038 0 3.84375 4.17117 3.84375 9.298V16.7023C3.84375 21.8291 7.95038 26 12.9983 26C18.0459 26 22.1528 21.8417 22.1528 16.7307V9.298C22.1528 4.17117 18.0459 0 12.9983 0Z" fill="white"/>
<path d="M12.9983 0C7.95038 0 3.84375 4.17117 3.84375 9.298V16.7023C3.84375 21.8291 7.95038 26 12.9983 26C18.0459 26 22.1528 21.8417 22.1528 16.7307V9.298C22.1528 4.17117 18.0459 0 12.9983 0ZM20.2659 16.7023C20.2659 20.864 17.0968 24.05 12.9983 24.05C8.89999 24.05 5.69365 20.8798 5.69365 16.7023V9.298C5.69365 5.12048 8.89999 1.95 12.9983 1.95C17.0969 1.95 20.2659 5.12048 20.2659 9.298V16.7023Z" fill="#000E4B"/>
<path d="M12.9977 7.117C12.5221 7.117 12.1367 7.50243 12.1367 7.97795V10.9912C12.1367 11.4667 12.5221 11.8522 12.9977 11.8522C13.4732 11.8522 13.8586 11.4667 13.8586 10.9912V7.97795C13.8586 7.50243 13.4732 7.117 12.9977 7.117Z" fill="#000E4B"/>
</svg>
