<svg width="20" height="20" viewBox="0 0 20 20" fill="none" xmlns="http://www.w3.org/2000/svg">
<path d="M6.01955 15.6402L5.99545 15.6802L6.03369 15.707C7.20038 16.5243 8.56426 16.9543 10.0002 16.9543C10.8258 16.9543 11.6292 16.8114 12.3934 16.529L12.4331 16.5144L12.4252 16.4728C12.2646 15.6297 11.8692 13.8334 11.0927 11.7284L11.0752 11.681L11.028 11.699C7.93941 12.8772 6.4959 14.85 6.01955 15.6402ZM14.3353 15.3358L14.352 15.4174L14.4162 15.3643C15.613 14.3737 16.4524 13.0044 16.7835 11.4915L16.7939 11.4441L16.7468 11.4323C16.2521 11.3089 15.3158 11.1212 14.1935 11.1212C13.8719 11.1212 13.5547 11.1368 13.2448 11.1676L13.1818 11.1739L13.2025 11.2337C13.8111 12.9936 14.1616 14.4872 14.3353 15.3358ZM15.6905 6.03876L15.6549 5.98785L15.6128 6.03345C15.0759 6.61435 13.9678 7.61946 12.1375 8.4405L12.0913 8.46125L12.1126 8.50721C12.2188 8.73535 12.3194 8.96036 12.4132 9.17962L12.4489 9.26431L12.4632 9.29837L12.4999 9.29475C12.9486 9.25046 13.4214 9.22802 13.91 9.22802C15.1431 9.22802 16.2267 9.36849 16.8592 9.47233L16.9227 9.48275L16.9171 9.41866C16.8118 8.20683 16.3871 7.03602 15.6905 6.03876ZM14.2928 4.62618L14.3283 4.58649L14.2864 4.55356C13.0656 3.59286 11.5589 3.06819 10.0002 3.06819C9.67083 3.06819 9.34258 3.09145 9.01874 3.13761L8.93776 3.14915L8.98496 3.21596C9.47465 3.909 10.3311 5.17439 11.1656 6.66672L11.1873 6.70549L11.2283 6.68852C12.9124 5.99246 13.8707 5.09808 14.2928 4.62618ZM6.79333 3.90406L6.76778 3.86809L6.72891 3.88895C5.08768 4.7698 3.85688 6.28736 3.33532 8.06431L3.31603 8.13005L3.38451 8.12838C4.40253 8.10364 6.53445 7.97667 8.96095 7.39162L9.02619 7.37589L8.99245 7.31787C8.091 5.76819 7.19817 4.47419 6.79333 3.90406ZM10.0287 9.23424L10.0103 9.19706L9.97035 9.20828C7.00749 10.0408 4.17257 10.1558 3.10946 10.167L3.05849 10.1675L3.06 10.2184C3.10317 11.6691 3.59941 13.0627 4.47739 14.2139L4.51915 14.2686L4.55829 14.2119C5.28991 13.1527 7.18145 10.8182 10.2258 9.77194L10.2785 9.75383L10.2548 9.70341C10.1827 9.54974 10.1073 9.39314 10.0287 9.23424ZM18.9503 9.99986C18.9503 14.9352 14.9353 18.9506 10.0002 18.9506C5.06512 18.9506 1.05 14.9352 1.05 9.99986C1.05 5.06493 5.06506 1.04998 10.0002 1.04998C14.9353 1.04998 18.9503 5.06493 18.9503 9.99986Z" fill="#000E4B" stroke="white" stroke-width="0.1"/>
</svg>
