<svg width="20" height="20" viewBox="0 0 20 20" fill="none" xmlns="http://www.w3.org/2000/svg">
<g clip-path="url(#clip0)">
<path d="M8.03517 9.30569L7.9151 9.36287L8.0431 9.39895C8.79017 9.60958 9.34132 9.99475 9.70616 10.5146C10.0713 11.0348 10.2525 11.6937 10.2525 12.4558C10.2525 13.6859 9.73513 14.5612 8.94331 15.1308C8.14945 15.7017 7.07631 15.9675 5.965 15.9675H0.05V3.8H5.8025C6.85339 3.8 7.82526 3.94891 8.53321 4.39562C9.23684 4.83959 9.68667 5.5822 9.68667 6.78917C9.68667 7.40067 9.54472 7.89948 9.26922 8.30962C8.99352 8.72006 8.58151 9.04551 8.03517 9.30569ZM2.705 5.79417H2.655V5.84417V8.70666V8.75666H2.705H5.4475C5.93697 8.75666 6.36243 8.65069 6.66637 8.40581C6.9722 8.15939 7.1475 7.77844 7.1475 7.24583C7.1475 6.6661 6.92037 6.29863 6.56249 6.07925C6.20899 5.86256 5.73411 5.79417 5.24333 5.79417H2.705ZM2.65417 13.9342V13.9842H2.70417H5.59667C6.15144 13.9842 6.66346 13.8868 7.03801 13.6266C7.41581 13.3641 7.64667 12.9409 7.64667 12.3075C7.64667 11.6688 7.4548 11.2149 7.10315 10.922C6.75324 10.6306 6.2536 10.5058 5.6525 10.5058H2.70417H2.65417V10.5558V13.9342Z" fill="#000E4B" stroke="white" stroke-width="0.1"/>
<path d="M19.7653 13.3125C19.4358 14.2872 18.938 15.0026 18.27 15.4774C17.5871 15.9628 16.7213 16.2 15.6646 16.2C14.2696 16.2 13.1433 15.7298 12.3658 14.921C11.588 14.1119 11.1551 12.9595 11.1555 11.5875V11.5875C11.1555 8.94687 12.9788 6.93667 15.6646 6.93667C17.0478 6.93667 18.1178 7.47821 18.8428 8.34266C19.5686 9.20811 19.9513 10.4006 19.9513 11.705C19.9513 11.8425 19.9434 11.9804 19.934 12.1108H13.553H13.503V12.1608C13.503 12.8809 13.6936 13.4601 14.0726 13.8594C14.4521 14.2592 15.0136 14.4717 15.7405 14.4717C16.1202 14.4717 16.5538 14.3695 16.9228 14.1705C17.2807 13.9775 17.5825 13.6907 17.711 13.3125H19.7653ZM17.5388 10.6758H17.5934L17.5886 10.6215C17.5363 10.0255 17.3531 9.53861 17.0213 9.2005C16.6886 8.86162 16.2127 8.67834 15.588 8.67834C14.9907 8.67834 14.4901 8.86432 14.1283 9.20276C13.7665 9.54118 13.5476 10.0281 13.5064 10.6224L13.5027 10.6758H13.5563H17.5388Z" fill="#000E4B" stroke="white" stroke-width="0.1"/>
<path d="M13.1047 4.44417H17.9947V5.5525H13.1047V4.44417Z" fill="#000E4B" stroke="white" stroke-width="0.1"/>
</g>
<defs>
<clipPath id="clip0">
<rect width="20" height="20" fill="white"/>
</clipPath>
</defs>
</svg>
