<svg width="256" height="379" fill="none" xmlns="http://www.w3.org/2000/svg"><path d="M-175.976 460S-314.158 300.923-298.81 295.178c15.356-5.753 138.183 82.411 138.183 82.411s-105.553-235.736-84.444-252.986c21.109-17.25 132.422 208.904 132.422 208.904s-17.266-329.644 0-333.474C-95.367-3.805-32.04 329.677-32.04 329.677S62 24.942 88.869 24.942 60.089 318.18 60.089 318.18s111.306-187.824 128.58-162.907c17.281 24.909-78.684 228.068-78.684 228.068s140.101-116.91 145.861-101.575C261.599 297.093 104.225 460 104.225 460h-280.201z" fill="#F0F0F0"/><path d="M70.362 95.13c.129.046-.16 1.325-.811 3.74-.819 2.808-1.82 6.267-3.032 10.475-2.895 9.605-6.799 22.601-11.559 38.405-9.74 32.426-22.844 77.318-36.192 127.212-13.317 49.918-24.36 95.369-32.092 128.332-3.76 16.069-6.852 29.277-9.14 39.049-1.04 4.254-1.903 7.75-2.6 10.589-.63 2.414-1.031 3.671-1.152 3.64-.137-.022.015-1.332.409-3.792.508-2.883 1.137-6.433 1.895-10.74 1.72-9.325 4.426-22.76 7.966-39.328 7.071-33.145 17.713-78.748 31.053-128.726 13.363-49.948 26.885-94.787 37.291-127.03 5.192-16.13 9.558-29.126 12.719-38.065 1.486-4.117 2.713-7.508 3.706-10.263.887-2.332 1.41-3.535 1.539-3.497zm66.582 169.922c.856.598-26.112 40.759-60.242 89.692-34.139 48.949-62.494 88.134-63.358 87.536-.856-.606 26.112-40.752 60.25-89.708 34.123-48.926 62.493-88.118 63.35-87.52z" fill="#CACACC"/></svg>