<svg width="449" height="473" fill="none" xmlns="http://www.w3.org/2000/svg"><path d="M369.578 212.742s.024-.204.102-.594l.366-1.731c.343-1.548.838-3.779 1.47-6.639 1.314-5.79 3.203-14.122 5.536-24.415 4.742-20.64 11.292-49.139 18.548-80.711l.327-1.424.324 1.425.407 1.794c7.216 32.014 13.748 60.992 18.485 82 2.328 10.478 4.215 18.965 5.528 24.865l1.468 6.769.367 1.764c.078.397.102.606.102.606s-.068-.199-.169-.592c-.104-.422-.248-1.003-.43-1.749-.373-1.57-.906-3.836-1.593-6.741-1.359-5.889-3.317-14.36-5.735-24.818-4.783-20.997-11.384-49.96-18.676-81.957l-.405-1.793.65.001-18.743 80.667-5.739 24.367-1.592 6.612-.43 1.715a8.14 8.14 0 01-.168.579z" fill="#263238"/><path d="M369.562 236.712V216.45h54.13v20.262c0 13.028-10.575 23.589-23.619 23.589h-6.891c-13.044 0-23.62-10.561-23.62-23.589z" fill="#ABABAB"/><path d="M369.564 216.45c.02-.012.231.281.614.852.412.624.961 1.46 1.651 2.508l5.967 9.296 19.468 30.799.137.219-.568.005 18.883-30.967 5.782-9.336 1.6-2.52c.372-.573.576-.868.596-.856.021.012-.145.331-.48.925-.374.643-.871 1.504-1.494 2.584l-5.603 9.447c-4.815 7.995-11.413 18.951-18.713 31.068l-.279.464-.289-.46-.138-.218-19.303-30.904c-2.415-3.93-4.384-7.129-5.786-9.407l-1.545-2.577c-.347-.591-.52-.91-.5-.922z" fill="#888"/><path d="M402.005 98.474a5.906 5.906 0 01-5.911 5.902 5.906 5.906 0 01-5.91-5.903 5.907 5.907 0 015.91-5.902 5.906 5.906 0 015.911 5.903z" fill="#263238"/><path d="M396.092-2c.184 0 .334 22.741.334 50.787 0 28.057-.15 50.793-.334 50.793-.185 0-.334-22.736-.334-50.793 0-28.046.149-50.787.334-50.787z" fill="#263238"/><path d="M399.16 262.503a2.53 2.53 0 01-2.531 2.527 2.529 2.529 0 01-2.531-2.527 2.529 2.529 0 012.531-2.527 2.53 2.53 0 012.531 2.527z" fill="#888"/><path d="M395.511 263.447c.134-.068.269-.135.405-.202-1.476.831-2.326 2.504-2.555 4.182-.23 1.677.077 3.377.433 5.032.112.527.39 1.181.927 1.149.486-.031.714-.606.798-1.085.171-.999.196-2.024.076-3.032a5.313 5.313 0 001.174 3.579c.158.193.385.394.628.329.231-.062.332-.324.392-.555.224-.847.352-1.719.382-2.596.132.753.285 1.551.805 2.11.519.561 1.54.726 2.016.129.32-.399.287-.967.216-1.473a17.416 17.416 0 00-3.54-8.302" fill="#888"/><path d="M372.971 216.45s-24.318-27.998-21.617-29.009c2.702-1.012 24.318 14.505 24.318 14.505s-18.576-41.49-14.861-44.526c3.715-3.036 23.305 36.767 23.305 36.767s-3.039-58.018 0-58.692c3.041-.676 14.186 58.018 14.186 58.018s16.55-53.634 21.279-53.634c4.728 0-5.065 51.611-5.065 51.611s19.588-33.058 22.628-28.672c3.041 4.384-13.847 40.14-13.847 40.14s24.656-20.576 25.67-17.877c1.012 2.697-26.684 31.369-26.684 31.369h-49.312z" fill="#FFE600"/><path d="M369.579 174.286c.168-.076 4.481 9.16 9.634 20.626 5.154 11.469 9.193 20.825 9.025 20.9-.168.076-4.481-9.159-9.634-20.627-5.152-11.466-9.193-20.823-9.025-20.899zm19.648 5.16c.184-.014.901 8.127 1.6 18.178.701 10.057 1.119 18.215.935 18.228-.183.014-.899-8.126-1.6-18.181-.7-10.051-1.119-18.213-.935-18.225zm27.099-25.984c.022.008-.028.233-.143.658l-.534 1.844c-.509 1.69-1.196 3.978-2.034 6.759a775.49 775.49 0 00-6.369 22.39 778.463 778.463 0 00-5.648 22.587l-1.609 6.872-.457 1.864c-.111.425-.182.646-.203.641-.024-.004.003-.235.072-.668l.333-1.89c.303-1.641.779-4.006 1.402-6.922 1.245-5.833 3.118-13.86 5.465-22.656 2.352-8.791 4.732-16.683 6.563-22.358a261.311 261.311 0 012.239-6.699l.652-1.806c.156-.411.248-.622.271-.616zm11.715 29.907c.15.105-4.596 7.173-10.602 15.786-6.008 8.615-10.998 15.512-11.15 15.406-.151-.106 4.595-7.172 10.603-15.788 6.005-8.612 10.998-15.509 11.149-15.404zm-46.864 32.487c-.056.068-.88-.496-2.128-1.517a58.218 58.218 0 01-4.625-4.267 58.45 58.45 0 01-4.158-4.728c-.99-1.271-1.533-2.108-1.463-2.163.155-.12 2.681 2.937 6.097 6.426 3.406 3.497 6.403 6.099 6.277 6.249zm14.769-11.122c.186-.017.571 2.569.863 5.774.292 3.208.381 5.82.197 5.836-.182.017-.569-2.569-.862-5.775-.291-3.205-.38-5.818-.198-5.835z" fill="#263238"/><path d="M423.694 229.077c.008.045-.737.197-2.091.433a168.66 168.66 0 01-5.752.88c-4.865.672-11.624 1.439-19.128 1.699-7.509.251-14.316-.16-19.194-.801-2.439-.314-4.406-.634-5.75-.923-1.349-.275-2.088-.449-2.08-.493.01-.047.766.041 2.123.237 1.355.209 3.324.457 5.761.711 4.871.517 11.642.853 19.119.603 7.472-.259 14.216-.949 19.09-1.5 2.352-.274 4.297-.499 5.774-.67 1.364-.156 2.122-.222 2.128-.176zm0 6.031c.008.046-.737.198-2.091.433a165.71 165.71 0 01-5.752.881c-4.865.671-11.624 1.44-19.128 1.698-7.509.252-14.316-.159-19.194-.799-2.439-.316-4.406-.635-5.75-.924-1.349-.275-2.088-.449-2.08-.493.01-.047.766.041 2.123.237 1.355.209 3.324.457 5.761.711 4.871.518 11.642.853 19.119.602 7.472-.258 14.216-.948 19.09-1.5l5.774-.67c1.364-.156 2.122-.221 2.128-.176z" fill="#fff"/><path d="M101.68 388.78l2.313 51.42 21.673-1.552 4.854-53.956-28.84 4.088z" fill="#FFBE9D"/><path d="M126.426 429.19s-15.256 10.813-22.64 1.452l-1.931 4.535-8.675 32.317c-.562 2.091.422 4.397 2.44 5.186 1.555.61 3.267.268 4.44-.846 6.275-5.963 29.25-28.006 29.026-30.997l-.09-7.934a4.03 4.03 0 00-2.57-3.713z" fill="#455A64"/><path d="M96.367 472.899l32.728-34.823-.007 1.735c.163 1.878-.658 2.62-1.551 3.824-2.647 3.567-9.977 11.542-27.356 28.2a4.196 4.196 0 01-3.814 1.064zm27.935-39.984c-1.029.704-1.37 2.252-.708 3.309.662 1.055 2.236 1.416 3.277.73 1.042-.685 1.51-2.533.732-3.509-.776-.974-2.648-1.296-3.493-.381m-18.302 22.002c-.232.112-1.148-2.035-3.579-3.198-2.396-1.234-4.66-.666-4.712-.92-.036-.1.485-.416 1.444-.548.95-.135 2.335.004 3.668.664 1.331.663 2.28 1.682 2.744 2.522.475.842.536 1.446.435 1.48zm-2.943 5.465c-.195.176-1.505-1.159-3.62-1.774-2.104-.661-3.934-.276-3.998-.531-.117-.21 1.857-1.069 4.258-.33 2.409.717 3.574 2.526 3.36 2.635zm8.398-12.464c-.193.193-2.196-1.871-5.402-3.115-3.188-1.295-6.064-1.167-6.07-1.439-.066-.218 2.979-.775 6.402.604 3.435 1.344 5.267 3.835 5.07 3.95zm.726-9.838c-.111.245-2.369-.709-5.313-.826-2.942-.158-5.281.577-5.367.324-.113-.2 2.246-1.384 5.409-1.222 3.164.135 5.402 1.535 5.271 1.724z" fill="#263238"/><path d="M105.001 437.313c-.052-.008-.041-.566.231-1.531.271-.956.823-2.336 1.957-3.756.575-.666 1.208-1.542 2.43-1.861.61-.163 1.424.096 1.801.718.376.606.402 1.295.296 1.934-.52 2.544-3.177 4.603-6.12 4.432-2.946-.224-5.251-2.358-5.981-4.776-.144-.618-.185-1.349.255-1.969.436-.628 1.304-.748 1.863-.543 1.162.402 1.788 1.232 2.395 1.874a12.02 12.02 0 012.16 3.637c.346.939.409 1.492.358 1.505-.16.08-.646-2.164-2.992-4.717-.599-.598-1.281-1.341-2.126-1.581-.412-.12-.805-.021-1.018.288-.213.295-.224.816-.091 1.305.629 1.984 2.74 3.93 5.233 4.081 2.479.169 4.812-1.644 5.249-3.688.099-.493.06-1.016-.149-1.359-.207-.338-.589-.491-.987-.41-.843.169-1.526.915-2.088 1.537-2.25 2.634-2.505 4.955-2.676 4.88z" fill="#263238"/><path d="M56.644 343.359l-26.519 50.272 21.174 12.668 34.234-48.171-28.889-14.769z" fill="#FFBE9D"/><path d="M33.442 386.907l-.864 1.393S3.015 383.269 0 387.606l47.235 28.638 8.9-16.087c-8.996-1.01-16.57-5.1-22.693-13.25z" fill="#455A64"/><path d="M48.301 402.276c.763.805.77 2.213-.002 3.008-.774.794-2.208.814-2.986.023-.775-.789-.837-2.482.02-3.184.857-.703 2.544-.634 3.107.318m-1.204 13.803l2.14-3.868L3.32 386.345s-2.66-.362-3.32 1.262l47.236 28.637zm-14.905-27.913c-.132.236.958 1.039 1.642 2.469.721 1.409.7 2.763.968 2.8.24.084.732-1.501-.127-3.217-.844-1.723-2.404-2.294-2.483-2.052zm-6.196-.957c-.188.192.572 1.19.763 2.638.235 1.444-.208 2.617.028 2.747.195.167 1.173-1.085.901-2.883-.256-1.799-1.553-2.718-1.692-2.502zm-6.416 4.216c.18.177 1.2-.78 1.375-2.4.185-1.62-.599-2.778-.814-2.645-.245.111.044 1.213-.12 2.541-.132 1.331-.656 2.343-.441 2.504zm162.24-120.483s15.458 21.284 12.916 41.001c-1.936 15.008-5.604 17.573-5.604 17.573l-47.406.048-10.135-63.538 14.708 1.149 35.521 3.767z" fill="#263238"/><path d="M105.516 299.77c-.11.063-.219.125-.328.189-7.242 4.131-11.512 11.68-11.12 19.673l6.978 102.495 28.512.999 4.644-93.004 14.865-.799-24.657-26.849c-4.79-5.082-12.731-6.223-18.894-2.704z" fill="#263238"/><path d="M36.016 381.663l49.52-109.404s9.414-7.027 18.276-6.604c8.863.421 64.151 18.124 64.151 18.124v45.097l-19.415-.422-43.891-4.214-16.715 31.697-25.415 43.21-26.511-17.484z" fill="#263238"/><path d="M178.544 289.86c-.008.02-.226-.053-.631-.208l-1.76-.706-6.452-2.631a478.954 478.954 0 00-21.508-8.09 476.114 476.114 0 00-21.892-7.003l-6.692-1.94-1.817-.539c-.413-.129-.629-.207-.624-.227.005-.02.231.019.655.111l1.846.43c1.602.382 3.908.981 6.748 1.759 5.681 1.554 13.479 3.893 21.974 6.844 8.487 2.956 16.055 5.959 21.473 8.265 2.709 1.152 4.89 2.114 6.383 2.808l1.715.809c.39.19.59.3.582.318z" fill="#455A64"/><path d="M179.883 280.189c-.009.087-1.579-.015-4.114-.165a289.646 289.646 0 00-9.909-.423l-9.926-.2c-2.541-.057-4.114-.131-4.114-.213 0-.042.392-.082 1.105-.116a107.54 107.54 0 013.009-.094c2.544-.045 6.057-.076 9.942.026 3.883.097 7.394.337 9.927.598 1.267.13 2.289.254 2.993.363.704.105 1.091.183 1.087.224zm-63.112 16.954c-.02.099-1.28-.441-3.662-.442-2.342-.02-5.883.648-9.347 3.111-3.469 2.412-6.472 6.778-7.958 12.173-1.571 5.397-1.544 11.667-1.058 18.139l2.504 33.305.682 10.099.15 2.748c.027.629.03.961.006.962-.024.003-.073-.325-.145-.951-.071-.694-.165-1.604-.28-2.739l-.902-10.082-2.707-33.293c-.488-6.49-.504-12.858 1.135-18.364 1.55-5.499 4.678-9.964 8.291-12.4 3.598-2.477 7.247-3.081 9.634-2.977 1.211.028 2.132.241 2.744.394.607.187.919.295.913.317zm58.437 29.682c-.001.024-.211.028-.608.014-.397-.019-.985-.024-1.736-.107-1.507-.124-3.678-.426-6.318-1.018-5.287-1.147-12.373-3.776-19.513-7.916-7.145-4.136-13.063-8.708-17.285-12.048a240.601 240.601 0 01-4.942-4.033c-1.152-.97-1.774-1.526-1.745-1.563.031-.037.71.446 1.914 1.351l5.075 3.857c4.293 3.238 10.236 7.729 17.33 11.835 7.089 4.11 14.067 6.778 19.279 8.04a60.504 60.504 0 006.237 1.228c1.488.209 2.317.304 2.312.36zm-40.466-9.844c.192.012-.16 8.814-.783 19.659-.624 10.848-1.285 19.629-1.477 19.619-.191-.009.16-8.811.784-19.659.624-10.845 1.284-19.629 1.476-19.619z" fill="#455A64"/><path d="M139.216 112.49c-3.087.223-6.216 1.653-7.849 4.278 1.192 5.622-.238 13.702 2.193 15.613 2.293 1.803 4.607-5.773 7.149-7.207 1.874-1.057 3.477-2.681 4.248-4.688.772-2.008.63-4.406-.606-6.167-1.233-1.762-3.61-2.727-5.665-2.082" fill="#263238"/><path d="M134.559 105.405c2-2.498 7.205.359 11.015-.76 3.81-1.12 7.918-.864 11.774.087 4.722.673 7.597 1.059 11.225 2.671 2.643 1.173 4.914 3 7.003 4.996 2.066 1.974 2.667 5.76 3.502 8.492 0 7.494-.067 6.637-1.501 13.489-1.064 2.08-2.532 4.867-3.501 6.993-.969 2.128-6.61 15.427-5.503 17.485" fill="#263238"/><path d="M168.064 116.324a4.13 4.13 0 013.688 4.194l-2.466 55.729c-.103 6.582-9.736 10.28-16.793 10.117-7.125-.166-7.355-3.656-7.444-9.918-.148-10.462-.136-14.388-.14-14.329 0 0-7.364-4.095-10.269-9.874-1.062-2.112-.887-4.561-.751-6.92.368-6.421-.341-13.081.09-19.677.46-7.037 5.149-15.663 12.169-14.905l21.916 5.583z" fill="#FFBE9D"/><path d="M136.61 133.656c-.029.794.619 1.474 1.45 1.521.828.045 1.525-.558 1.554-1.353.03-.794-.618-1.476-1.446-1.523-.831-.045-1.528.559-1.558 1.355zm-.563-3.789c.187.198 1.33-.644 2.951-.636 1.621-.015 2.808.82 2.984.623.087-.088-.103-.442-.62-.82-.509-.376-1.378-.744-2.388-.741-1.01.002-1.861.373-2.349.751-.499.381-.67.736-.578.823zm15.911 3.789c-.029.794.619 1.474 1.448 1.521.829.045 1.525-.558 1.556-1.353.029-.794-.619-1.476-1.448-1.523-.829-.045-1.527.561-1.556 1.355zm.026-2.691c.187.196 1.331-.644 2.951-.636 1.619-.016 2.808.82 2.984.622.086-.088-.1-.442-.621-.819-.508-.377-1.377-.744-2.387-.742-1.01.004-1.86.373-2.349.752-.498.38-.668.736-.578.823zm-5.915 11.994c.008-.092-.999-.267-2.632-.479-.413-.044-.805-.128-.875-.409-.097-.3.078-.745.279-1.226l1.231-3.145c1.71-4.479 2.95-8.162 2.769-8.229-.181-.066-1.715 3.508-3.425 7.988-.411 1.104-.806 2.157-1.181 3.164-.157.469-.426 1.002-.217 1.622.111.309.414.535.679.605.265.083.499.087.703.1 1.643.092 2.664.101 2.669.009z" fill="#263238"/><path d="M144.906 162.117s7.902.527 15.743-4.156c0 0-3.987 8.058-15.743 6.934v-2.778z" fill="#EB996E"/><path d="M151.266 126.223c.159.441 1.778.236 3.68.469 1.907.196 3.439.754 3.693.361.112-.19-.154-.604-.774-1.031-.614-.427-1.594-.834-2.735-.964-1.141-.127-2.187.052-2.881.333-.699.278-1.051.623-.983.832zm-14.615-.28c.284.368 1.402-.01 2.745-.026 1.342-.062 2.48.253 2.743-.131.114-.187-.064-.556-.559-.905-.49-.349-1.309-.632-2.232-.607-.922.027-1.722.358-2.19.734-.476.377-.633.755-.507.935zm14.24 19.927c-.246-.015-.252 1.624-1.661 2.784-1.403 1.165-3.153.977-3.167 1.206-.022.102.39.318 1.129.34a4.074 4.074 0 002.642-.913c.859-.711 1.23-1.662 1.288-2.335.064-.685-.119-1.091-.231-1.082z" fill="#263238"/><path d="M131.559 109.901c.559 3.713 3.502 7.494 14.005 9.991 8.004-1.998 7.48 3.826 11.453 3.409.541-.057 1.109-.147 1.608.065.53.225.865.74 1.209 1.199a10.497 10.497 0 006.392 3.989c.497 3.707 3.489 6.951 7.15 7.746 0 0 1.205-.595.78-5.338-.424-4.742.092-14.606.092-14.606l-12.863-5.833-15.377-2.864s-5.946.744-14.449 2.242z" fill="#263238"/><path d="M147.56 115.038c-.152.124-.752-.373-1.51-.917-.754-.551-1.412-.968-1.342-1.151.063-.175.911-.021 1.75.589.84.606 1.25 1.366 1.102 1.479zm18.264 6.82c-.073.191-1.559-.292-3.432-.228-1.874.036-3.331.597-3.415.411-.097-.151 1.35-1.059 3.396-1.104 2.045-.064 3.541.765 3.451.921zm11.274 10.773c-.156.133-1.24-1.084-3.061-1.71-1.809-.664-3.42-.404-3.456-.606-.081-.164 1.657-.782 3.688-.047 2.038.711 2.996 2.287 2.829 2.363zm-4.923-19.646c-.057.018-.187-.393-.604-1.018-.42-.62-1.191-1.41-2.368-2.068-2.346-1.308-6.108-2.251-10.254-2.299-4.165-.051-7.9.749-10.559 1.397-2.662.669-4.292 1.174-4.327 1.073-.015-.043.373-.227 1.095-.504a44.397 44.397 0 013.104-1.043c2.645-.774 6.427-1.668 10.697-1.617 4.257.053 8.087 1.086 10.497 2.572 1.204.746 1.977 1.649 2.347 2.349.367.706.405 1.151.372 1.158zm5.645 9.151c-.132.047-.411-1.443-1.809-3.307-1.359-1.861-3.991-3.941-7.405-4.919-3.426-.97-6.726-.853-9.062-.697-2.349.172-3.805.37-3.821.264-.015-.083 1.41-.453 3.775-.753 2.346-.281 5.732-.489 9.301.518 3.575 1.022 6.296 3.281 7.611 5.302.673 1.007 1.057 1.917 1.234 2.565.183.647.215 1.019.176 1.027z" fill="#455A64"/><path d="M125.745 184.309s-10.718 6.094-11.696 19.01c-.979 12.917-4.001 37.967-4.001 37.967l-28.911 8.698 3.516 18.901 52.048-14.491-10.956-70.085z" fill="#FFE600"/><path d="M191.924 179.599c-2.913-1.247-20.85-4.755-20.85-4.755l2.001-9.492-31.513 2.498 3.001 10.491-18.817 5.967-.434 19.432 7.246 68.518 60.526 23.48c2.001 2.997-.917-27.744-1.001-31.972l-4.737-55.488s7.491-27.432 4.578-28.679z" fill="#FFE600"/><path d="M191.921 179.599s10.394 3.981 11.279 19.632c.58 10.306 4.207 27.906 6.616 38.725 1.352 6.08 1.011 12.898-2.358 18.14-4.872 5.651-11.512 10.572-20.077 11.245h-21.484l-9.327-14.825 24.778-7.215 5.871-35.676 4.702-30.026z" fill="#FFE600"/><path d="M196.399 253.851c-.047.004-.12-.612-.317-1.711-.206-1.094-.526-2.69-1.305-4.512-.774-1.803-2.077-3.869-4.225-5.345-1.059-.733-2.318-1.306-3.698-1.523-1.381-.218-2.857-.086-4.339.207-5.952 1.339-11.314 2.765-15.08 4.129l-4.501 1.526c-1.069.346-1.665.518-1.68.481-.013-.04.556-.287 1.601-.701l4.439-1.704c3.751-1.472 9.109-2.969 15.108-4.319 1.517-.298 3.067-.439 4.546-.197 1.479.241 2.813.866 3.92 1.651 2.242 1.58 3.556 3.762 4.299 5.633.749 1.893 1.007 3.525 1.145 4.639.128 1.12.121 1.744.087 1.746zm-18.27-45.036c.042-.003.103.409.179 1.156.077.746.153 1.829.225 3.168.127 2.828.29 6.447.468 10.449.228 4.073.639 7.741 1.162 10.356.502 2.619 1.037 4.189.938 4.223-.038.014-.202-.367-.466-1.073-.14-.351-.276-.79-.423-1.304a22.194 22.194 0 01-.463-1.758c-.634-2.62-1.117-6.318-1.345-10.409-.225-4.091-.252-7.793-.293-10.47l-.036-3.171c-.004-.749.013-1.165.054-1.167zm-48.296-6.065c.041.002.054.418.042 1.169a68.83 68.83 0 01-.146 3.172l-.755 10.433c-.249 4.071-.269 7.763-.055 10.421.193 2.659.541 4.28.439 4.303-.04.009-.158-.389-.338-1.121a14.182 14.182 0 01-.268-1.344 22.142 22.142 0 01-.254-1.799c-.324-2.676-.372-6.406-.121-10.495.254-4.09.659-7.77.931-10.432.13-1.226.242-2.276.334-3.155.084-.744.149-1.155.191-1.152zm74.634 56.583c.028.031-.391.443-1.178 1.17a27.863 27.863 0 01-3.658 2.676c-3.241 2.017-8.303 4.078-14.188 4.443a29.56 29.56 0 01-8.227-.616c-2.498-.529-4.603-1.417-6.438-1.848-1.826-.467-3.374-.475-4.437-.618-1.064-.122-1.639-.294-1.63-.329.009-.045.59.047 1.65.097 1.051.071 2.621.014 4.513.439 1.89.389 4.012 1.236 6.457 1.721 2.443.498 5.198.753 8.074.558 5.772-.36 10.757-2.313 14.01-4.211 3.286-1.893 4.965-3.587 5.052-3.482zm-19.172-81.192c.041.11-1.102.517-2.72 1.558-1.611 1.027-3.666 2.791-5.171 5.29-1.505 2.5-2.102 5.142-2.254 7.043-.162 1.915.014 3.115-.102 3.13-.071.016-.425-1.172-.388-3.157.029-1.967.571-4.753 2.148-7.373 1.578-2.619 3.787-4.405 5.513-5.352 1.738-.965 2.955-1.21 2.974-1.139zm-37.591.669c-.186.021-.619-2.463-.724-5.564-.111-3.102.146-5.61.333-5.602.196.008.251 2.506.361 5.578.104 3.07.224 5.567.03 5.588zm7.142-.857c-.183.036-.8-2.358-1.12-5.382-.327-3.024-.229-5.494-.043-5.498.198-.004.411 2.433.734 5.425.316 2.992.622 5.419.429 5.455zm7.756-.551c-.183.035-.81-2.525-1.127-5.753-.323-3.229-.213-5.863-.027-5.864.198-.004.398 2.597.719 5.795.313 3.195.629 5.788.435 5.822zM121.52 260.99l30.367-.544-16.926 8.064-13.441-7.52z" fill="#263238"/><path d="M58.52 217.298l11.734 51.354a4.19 4.19 0 004.135 3.254l60.759-.698 16.674-8.194-.26-2.329-14.481 6.501-9.064-53.459c-.134-2.382-2.319-3.978-4.004-3.886l-62.472 3.454a3.28 3.28 0 00-3.02 4.003z" fill="#ABABAB"/><path d="M137.773 261.036c1.925 2.714 3.569.471 5.784-.373 1.838-.7 3.016-1.573 3.016-1.573l-.516 7.848-4.69 3.341s-.017 2.107 3.085 2.322c3.103.213 4.352-.321 4.352-.321l.168 1.048a2.454 2.454 0 002.37 2.073c.563.008 1.111-.045 1.454-.237 0 0 3.057 1.788 6.159.064 3.102-1.723 2.835-4.972 2.835-4.972l4.816-9.618 1.355-.393s2.884-4.778-1.208-8.936c-2.159-2.193-5.465-2.804-8.387-1.836l-6.364 2.112a6.51 6.51 0 00-4.523 1.197 816.952 816.952 0 01-5.192 3.676l-4.514 4.578z" fill="#FFBE9D"/><path d="M152.189 265.311c.083-.005.189.5.293 1.319.084.813.282 1.973-.002 3.289-.146.645-.448 1.263-.869 1.687a2.95 2.95 0 01-1.329.812c-.904.231-1.425-.15-1.377-.197.027-.096.535.088 1.244-.202.704-.283 1.516-1.062 1.748-2.236.256-1.157.143-2.303.162-3.127.004-.826.048-1.339.13-1.345zm-5.615-6.221c.165.013.183 1.777.041 3.939s-.392 3.912-.557 3.91c-.164-.003-.183-1.767-.04-3.941.143-2.173.392-3.923.556-3.908zm10.941 8.097c.077-.006.216.571.299 1.533.062.94.101 2.382-.687 3.749-.802 1.356-2.085 2.047-2.975 2.396-.914.351-1.515.408-1.534.337-.027-.086.532-.29 1.359-.72.811-.431 1.94-1.13 2.632-2.313.691-1.183.739-2.514.782-3.44.026-.94.037-1.537.124-1.542z" fill="#EB996E"/><path d="M166.158 263.807c-.099-.052.566-1.125 1.49-2.863a9.05 9.05 0 00.924-3.268c.127-1.285-.003-2.703-.594-4.062a8.127 8.127 0 00-2.505-3.249 9.132 9.132 0 00-3.037-1.525c-1.892-.54-3.156-.392-3.155-.502-.002-.036.303-.111.87-.141a8.839 8.839 0 012.394.234 8.925 8.925 0 013.259 1.495 8.374 8.374 0 012.725 3.454c.635 1.451.757 3.019.591 4.351a8.855 8.855 0 01-1.098 3.409c-.504.883-.985 1.534-1.31 1.99-.329.452-.517.698-.554.677z" fill="#263238"/><path d="M97.869 240.653a3.412 3.412 0 01-3.415 3.41 3.412 3.412 0 01-3.415-3.41 3.413 3.413 0 013.415-3.411 3.413 3.413 0 013.415 3.411z" fill="#FAFAFA"/><path d="M135.145 271.208c-.012.001-.037-.105-.077-.316l-.159-.934-.552-3.602-2.009-13.243c-.87-5.588-1.926-12.238-3.233-19.597-.666-3.677-1.374-7.536-2.228-11.509a156.893 156.893 0 00-1.388-6.027c-.277-.985-.639-1.962-1.301-2.686-.654-.728-1.618-1.102-2.641-1.223-1.027-.126-2.086-.059-3.153.012l-3.173.207-6.204.403-11.726.751c-7.462.464-14.186.881-19.858 1.232-5.609.324-10.168.585-13.39.772l-3.644.174-.948.028c-.214.001-.323-.003-.324-.015 0-.012.108-.03.32-.056l.944-.097 3.635-.305 13.38-.99 19.85-1.381 11.724-.791c2.033-.136 4.102-.273 6.203-.415l3.172-.209c1.059-.069 2.157-.144 3.279-.009 1.109.128 2.279.565 3.066 1.444.786.868 1.166 1.948 1.456 2.969.51 2.061.979 4.071 1.387 6.071.847 3.987 1.543 7.853 2.191 11.539a699.594 699.594 0 013.09 19.635c.805 5.6 1.402 10.14 1.79 13.28.18 1.527.321 2.735.424 3.62l.091.943c.016.213.018.324.006.325z" fill="#263238"/></svg>