<svg width="158" height="277" fill="none" xmlns="http://www.w3.org/2000/svg"><path d="M76.207 213.88l1.734 38.538 16.243-1.164 3.638-40.439-21.615 3.065z" fill="#FFBE9D"/><path d="M94.753 244.166s-11.434 8.104-16.968 1.088l-1.447 3.399-6.502 24.22c-.421 1.568.317 3.296 1.83 3.887a3.139 3.139 0 003.326-.634c4.703-4.469 21.922-20.99 21.754-23.231l-.066-5.947a3.02 3.02 0 00-1.927-2.782z" fill="#455A64"/><path d="M72.227 276.924l24.528-26.098-.005 1.3c.122 1.407-.493 1.964-1.163 2.866-1.983 2.673-7.477 8.65-20.502 21.135a3.14 3.14 0 01-2.858.797zm20.937-29.967c-.77.528-1.026 1.688-.53 2.48.496.791 1.676 1.062 2.456.547.78-.513 1.132-1.898.549-2.629-.582-.73-1.985-.972-2.619-.286m-13.72 16.49c-.173.084-.86-1.525-2.682-2.396-1.795-.926-3.493-.5-3.53-.69-.028-.075.362-.312 1.081-.411.713-.102 1.75.003 2.75.497.997.498 1.708 1.261 2.056 1.89.356.631.401 1.085.326 1.11zm-2.204 4.096c-.146.132-1.128-.869-2.713-1.33-1.577-.495-2.948-.207-2.996-.397-.088-.158 1.391-.802 3.19-.248 1.806.537 2.679 1.893 2.519 1.975zm6.292-9.342c-.145.145-1.645-1.402-4.048-2.334-2.39-.971-4.545-.875-4.55-1.078-.05-.164 2.233-.582 4.798.452 2.575 1.007 3.949 2.874 3.8 2.96zm.545-7.373c-.083.184-1.775-.531-3.981-.619-2.206-.119-3.958.432-4.023.243-.084-.15 1.683-1.038 4.053-.916 2.372.101 4.05 1.15 3.951 1.292z" fill="#263238"/><path d="M78.697 250.254c-.039-.006-.03-.425.173-1.147a8.044 8.044 0 011.467-2.816c.43-.499.906-1.155 1.821-1.395.457-.122 1.067.072 1.35.538.282.455.3.971.222 1.45-.39 1.907-2.381 3.45-4.587 3.322-2.208-.168-3.936-1.767-4.483-3.58-.108-.463-.139-1.011.191-1.475.327-.471.978-.561 1.397-.408.87.302 1.34.924 1.794 1.405a9.002 9.002 0 011.62 2.726c.259.704.306 1.118.268 1.128-.12.06-.484-1.622-2.242-3.535-.45-.449-.96-1.006-1.594-1.185-.309-.09-.603-.016-.763.215-.16.222-.168.612-.068.979.471 1.486 2.054 2.945 3.922 3.058 1.858.127 3.606-1.232 3.934-2.764.074-.369.045-.762-.112-1.018a.683.683 0 00-.74-.308c-.632.127-1.143.686-1.564 1.152-1.687 1.974-1.878 3.714-2.006 3.658z" fill="#263238"/><path d="M42.454 179.838l-19.876 37.677 15.87 9.494 25.657-36.103-21.651-11.068z" fill="#FFBE9D"/><path d="M25.064 212.476l-.648 1.044S2.26 209.749 0 213l35.401 21.463 6.67-12.057c-6.742-.757-12.418-3.822-17.007-9.93z" fill="#455A64"/><path d="M36.203 223.994c.571.603.576 1.659-.002 2.255-.58.595-1.655.61-2.238.017-.58-.591-.628-1.86.015-2.386.642-.528 1.907-.476 2.328.238m-.904 10.345l1.604-2.899-34.518-19.509S.495 211.783 0 213l35.402 21.463zm-11.167-20.92c-.1.177.717.779 1.23 1.85.54 1.057.525 2.071.725 2.099.18.063.549-1.125-.095-2.411-.632-1.291-1.801-1.72-1.86-1.538zm-4.646-.717c-.141.143.428.891.571 1.977.176 1.082-.156 1.961.021 2.058.146.126.88-.812.676-2.16-.192-1.348-1.164-2.037-1.268-1.875zm-4.809 3.16c.135.133.9-.585 1.03-1.799.14-1.214-.448-2.082-.609-1.982-.184.083.033.908-.09 1.904-.099.997-.492 1.756-.33 1.877zm121.595-90.299s11.586 15.951 9.681 30.729c-1.451 11.248-4.2 13.17-4.2 13.17l-35.53.036-7.595-47.619 11.022.86 26.622 2.824z" fill="#263238"/><path d="M79.083 147.169l-.245.141c-5.429 3.097-8.629 8.755-8.335 14.745l5.23 76.817 21.37.749 3.479-69.704 11.141-.599-18.48-20.122c-3.59-3.809-9.541-4.665-14.16-2.027z" fill="#263238"/><path d="M26.996 208.545l37.115-81.995s7.055-5.266 13.697-4.95c6.642.316 48.079 13.584 48.079 13.584v33.799l-14.551-.316-32.895-3.158-12.528 23.755-19.047 32.385-19.87-13.104z" fill="#263238"/><path d="M133.816 139.741c-.006.015-.169-.039-.473-.155l-1.319-.529c-1.198-.49-2.836-1.158-4.835-1.972a358.56 358.56 0 00-16.12-6.064 357.479 357.479 0 00-16.407-5.248l-5.016-1.454-1.362-.404c-.31-.097-.472-.155-.468-.17.004-.015.173.014.491.083l1.384.322c1.2.287 2.93.735 5.058 1.318a264.1 264.1 0 0132.562 11.324c2.03.864 3.665 1.585 4.783 2.105l1.286.606c.292.143.442.225.436.238z" fill="#455A64"/><path d="M134.817 132.493c-.007.065-1.183-.011-3.083-.124a217.878 217.878 0 00-7.427-.316l-7.439-.15c-1.904-.043-3.083-.098-3.083-.16 0-.031.294-.061.828-.087a79.121 79.121 0 012.255-.07c1.907-.034 4.54-.057 7.451.019 2.91.073 5.542.253 7.44.449.95.097 1.716.189 2.244.271.528.079.817.137.814.168zM87.515 145.2c-.015.074-.959-.33-2.744-.331-1.756-.015-4.409.485-7.005 2.331-2.6 1.808-4.851 5.08-5.965 9.124-1.177 4.044-1.157 8.744-.793 13.594l1.877 24.961.51 7.57.114 2.059c.02.472.022.72.004.721-.018.002-.055-.244-.11-.713-.052-.52-.122-1.202-.21-2.053l-.675-7.556-2.028-24.952c-.366-4.864-.378-9.637.85-13.763 1.162-4.122 3.507-7.468 6.214-9.294 2.697-1.857 5.431-2.309 7.22-2.231a9.041 9.041 0 012.057.295c.455.14.689.221.684.238zm43.798 22.246c-.001.018-.158.021-.455.011-.298-.015-.739-.019-1.302-.081-1.129-.092-2.756-.319-4.735-.763-3.963-.86-9.273-2.83-14.624-5.933-5.356-3.1-9.791-6.526-12.955-9.029a181.06 181.06 0 01-3.704-3.023c-.864-.727-1.33-1.143-1.308-1.171.023-.028.532.334 1.434 1.013l3.804 2.89c3.218 2.427 7.672 5.793 12.989 8.87 5.313 3.08 10.543 5.08 14.449 6.026a45.4 45.4 0 004.674.92c1.115.157 1.737.228 1.733.27zm-30.326-7.378c.144.009-.12 6.606-.587 14.734-.468 8.13-.963 14.712-1.107 14.704-.143-.007.12-6.604.587-14.734.468-8.128.963-14.712 1.107-14.704z" fill="#455A64"/><path d="M104.339 6.807c-2.313.167-4.658 1.24-5.882 3.206.893 4.214-.179 10.27 1.644 11.702 1.718 1.351 3.453-4.326 5.357-5.402 1.405-.791 2.606-2.008 3.184-3.513.579-1.505.472-3.302-.454-4.622-.924-1.32-2.706-2.044-4.245-1.56" fill="#263238"/><path d="M100.848 1.497c1.499-1.872 5.4.27 8.255-.569 2.856-.84 5.935-.648 8.825.065 3.539.504 5.693.794 8.413 2.002 1.98.879 3.683 2.249 5.248 3.744 1.549 1.48 1.999 4.317 2.625 6.365 0 5.616-.05 4.974-1.125 10.11-.798 1.559-1.898 3.647-2.624 5.24-.726 1.595-4.954 11.563-4.124 13.105" fill="#263238"/><path d="M125.959 9.68a3.096 3.096 0 012.764 3.144l-1.849 41.768c-.077 4.933-7.297 7.704-12.585 7.582-5.341-.124-5.513-2.74-5.58-7.434-.111-7.84-.102-10.783-.105-10.739 0 0-4.865-2.706-7.262-6.621-1.233-2.016-1.044-4.495-.955-6.856.172-4.536-.278-9.217.025-13.856.345-5.275 3.859-11.74 9.121-11.172l16.426 4.185z" fill="#FFBE9D"/><path d="M102.387 22.67c-.022.596.464 1.106 1.087 1.14.62.035 1.143-.418 1.165-1.014.022-.595-.464-1.106-1.084-1.14-.623-.035-1.146.419-1.168 1.015zm-.42-2.839c.14.148.997-.483 2.211-.477 1.215-.011 2.105.615 2.237.467.065-.066-.077-.331-.465-.615-.381-.281-1.033-.557-1.79-.555-.756.002-1.394.28-1.76.563-.374.286-.502.551-.433.617zm11.92 2.839c-.022.595.464 1.106 1.086 1.14.621.035 1.143-.418 1.166-1.014.022-.595-.464-1.106-1.085-1.141-.622-.034-1.145.42-1.167 1.015zm.021-2.016c.14.147.998-.483 2.211-.477 1.214-.012 2.105.615 2.237.466.065-.066-.075-.331-.465-.614-.381-.282-1.033-.557-1.79-.556-.756.003-1.393.28-1.76.564-.373.285-.501.551-.433.617zm-4.432 8.989c.006-.069-.748-.2-1.972-.36-.31-.032-.604-.095-.656-.306-.073-.224.058-.558.209-.918l.923-2.357c1.281-3.357 2.21-6.118 2.075-6.168-.136-.05-1.285 2.63-2.567 5.987l-.885 2.371c-.118.352-.32.75-.163 1.216.083.232.31.4.509.453.199.062.374.065.527.075 1.232.07 1.996.076 2 .007z" fill="#263238"/><path d="M108.605 44.001s5.923.396 11.799-3.115c0 0-2.988 6.04-11.799 5.197v-2.082z" fill="#EB996E"/><path d="M113.37 17.1c.118.33 1.332.177 2.758.352 1.428.146 2.577.565 2.767.27.084-.143-.115-.453-.58-.773-.46-.32-1.195-.625-2.049-.722-.856-.095-1.64.038-2.16.25-.524.208-.787.466-.736.623zm-10.952-.21c.213.276 1.051-.008 2.057-.02 1.006-.046 1.859.19 2.056-.098.086-.14-.048-.416-.419-.677-.367-.262-.981-.475-1.673-.456-.691.02-1.29.269-1.641.55-.357.283-.474.566-.38.701zm10.669 14.935c-.184-.011-.189 1.217-1.244 2.086-1.052.873-2.364.732-2.374.904-.017.077.292.239.846.255a3.054 3.054 0 001.981-.684c.643-.534.921-1.246.964-1.75.048-.514-.089-.818-.173-.811z" fill="#263238"/><path d="M98.602 4.867c.418 2.783 2.624 5.616 10.496 7.488 5.999-1.497 5.606 2.867 8.584 2.555.406-.043.831-.11 1.205.049.397.168.648.554.906.898a7.868 7.868 0 004.791 2.99c.373 2.778 2.615 5.21 5.358 5.805 0 0 .904-.446.585-4-.318-3.555.069-10.947.069-10.947l-9.64-4.372-11.525-2.147s-4.456.558-10.83 1.681z" fill="#263238"/><path d="M110.595 8.717c-.114.093-.564-.28-1.133-.687-.564-.413-1.058-.726-1.005-.863.047-.131.683-.016 1.311.442.63.454.937 1.023.827 1.108zm13.685 5.111c-.055.143-1.169-.219-2.573-.17-1.404.026-2.496.447-2.559.307-.073-.113 1.012-.793 2.545-.827 1.533-.048 2.654.573 2.587.69zm8.45 8.075c-.116.1-.929-.813-2.294-1.282-1.356-.497-2.563-.303-2.59-.454-.061-.123 1.241-.587 2.764-.036 1.528.534 2.245 1.715 2.12 1.772zm-3.688-14.725c-.043.014-.14-.295-.453-.763-.315-.464-.892-1.056-1.774-1.55-1.759-.98-4.578-1.687-7.685-1.723-3.122-.038-5.921.562-7.914 1.048-1.995.5-3.217.88-3.243.803-.011-.031.28-.17.821-.377a33.098 33.098 0 012.326-.782c1.983-.58 4.817-1.25 8.017-1.212 3.191.04 6.061.814 7.868 1.928.902.56 1.481 1.236 1.758 1.76.275.53.304.863.279.868zm4.231 6.859c-.099.035-.308-1.082-1.356-2.478-1.019-1.395-2.991-2.955-5.551-3.688-2.567-.726-5.04-.639-6.791-.522-1.76.13-2.852.278-2.864.198-.011-.062 1.057-.34 2.829-.564 1.759-.21 4.296-.367 6.971.388 2.68.766 4.719 2.46 5.705 3.974.504.755.792 1.437.925 1.922.137.485.161.764.132.77z" fill="#455A64"/><path d="M94.242 60.633s-8.034 4.568-8.766 14.248c-.734 9.681-3 28.455-3 28.455l-21.667 6.519 2.635 14.166 39.008-10.861-8.21-52.527z" fill="#FFE600"/><path d="M143.841 57.104c-2.183-.935-15.626-3.564-15.626-3.564l1.5-7.114-23.619 1.872 2.25 7.863-14.103 4.472-.325 14.564 5.43 51.352 45.363 17.598c1.499 2.246-.687-20.793-.75-23.962l-3.551-41.587s5.615-20.56 3.431-21.494z" fill="#FFE600"/><path d="M143.839 57.104s7.789 2.983 8.452 14.713c.435 7.724 3.153 20.915 4.959 29.024 1.014 4.556.758 9.666-1.768 13.595-3.651 4.235-8.627 7.923-15.047 8.428h-16.101l-6.99-11.111 18.57-5.407 4.4-26.739 3.525-22.503z" fill="#FFE600"/><path d="M147.195 112.754c-.035.003-.09-.459-.236-1.283-.155-.82-.395-2.016-.979-3.382-.58-1.35-1.557-2.899-3.166-4.005-.794-.549-1.738-.979-2.772-1.141-1.035-.164-2.141-.065-3.252.154-4.46 1.004-8.479 2.073-11.302 3.095l-3.374 1.144c-.8.259-1.247.388-1.258.36-.01-.03.417-.215 1.199-.525l3.327-1.277c2.812-1.103 6.828-2.226 11.323-3.237 1.137-.224 2.299-.329 3.407-.148 1.109.181 2.109.649 2.939 1.237 1.68 1.184 2.665 2.82 3.222 4.223.561 1.418.755 2.641.857 3.476.096.84.091 1.307.065 1.309zM133.502 79c.031-.002.077.306.134.867.058.559.115 1.37.169 2.374l.351 7.831c.171 3.053.479 5.802.87 7.762.377 1.963.778 3.139.704 3.165-.029.01-.152-.275-.35-.805a10.508 10.508 0 01-.317-.977 16.48 16.48 0 01-.347-1.317c-.475-1.964-.837-4.736-1.008-7.802-.169-3.066-.189-5.84-.22-7.846l-.027-2.377c-.003-.561.01-.873.041-.875zm-36.73-4.543c.038.004.067.317.085.88.02.561.016 1.372-.01 2.372-.077 2.108-.176 4.806-.287 7.789-.07 3.041.057 5.81.36 7.814.284 2.005.67 3.238.577 3.25-.037.005-.162-.3-.358-.857a9.56 9.56 0 01-.3-1.022c-.11-.4-.22-.857-.307-1.362-.406-2.024-.597-4.824-.526-7.88.073-3.055.304-5.795.45-7.779l.185-2.35c.048-.554.093-.859.131-.855zm56.469 42.405c.021.023-.293.333-.882.877a20.845 20.845 0 01-2.742 2.006c-2.429 1.511-6.223 3.056-10.634 3.329a22.144 22.144 0 01-6.165-.461c-1.873-.396-3.45-1.062-4.826-1.385-1.368-.35-2.528-.356-3.325-.463-.798-.092-1.229-.221-1.222-.247.007-.034.442.035 1.237.073.788.053 1.965.01 3.382.329 1.417.291 3.007.926 4.84 1.29 1.83.373 3.896.564 6.051.418 4.326-.27 8.062-1.733 10.5-3.156 2.463-1.419 3.721-2.689 3.786-2.61zM138.875 56.5c.038.083-.877.312-2.151.975-1.27.654-2.869 1.82-3.987 3.558-1.116 1.738-1.487 3.635-1.526 5.018-.047 1.391.149 2.28.056 2.284-.058.008-.4-.883-.457-2.333a9.211 9.211 0 011.425-5.266c1.172-1.822 2.896-2.995 4.263-3.583 1.376-.601 2.358-.706 2.377-.653zm-28.172.012c-.139.016-.463-1.846-.542-4.17-.083-2.324.11-4.204.249-4.198.147.006.188 1.878.271 4.18.078 2.301.168 4.172.022 4.188zm5.352-.642c-.137.027-.6-1.767-.84-4.034-.244-2.266-.172-4.117-.032-4.12.148-.003.308 1.823.55 4.065.237 2.243.467 4.062.322 4.089zm5.811-.412c-.137.026-.607-1.893-.845-4.313-.242-2.42-.16-4.394-.02-4.395.148-.003.298 1.947.539 4.343.235 2.396.472 4.338.326 4.364zm-30.792 62.646l22.76-.408-12.686 6.044-10.074-5.636z" fill="#263238"/><path d="M43.86 85.358l8.793 38.488a3.141 3.141 0 003.1 2.44l45.537-.524 12.496-6.141-.195-1.745-10.853 4.872-6.793-40.066c-.1-1.786-1.738-2.982-3.001-2.913l-46.821 2.59a2.458 2.458 0 00-2.264 3z" fill="#ABABAB"/><path d="M103.258 118.139c1.442 2.034 2.674.353 4.335-.279 1.377-.526 2.26-1.18 2.26-1.18l-.387 5.882-3.515 2.504s-.013 1.58 2.312 1.74c2.326.16 3.262-.24 3.262-.24l.126.785c.14.877.886 1.54 1.776 1.554.422.006.833-.034 1.09-.178 0 0 2.291 1.34 4.615.048 2.326-1.291 2.126-3.726 2.126-3.726l3.609-7.208 1.016-.295s2.161-3.581-.906-6.697c-1.618-1.644-4.096-2.102-6.285-1.376l-4.77 1.582a4.877 4.877 0 00-3.39.898c-.79.574-3.891 2.755-3.891 2.755l-3.383 3.431z" fill="#FFBE9D"/><path d="M114.065 121.343c.062-.004.141.374.219.988.063.609.212 1.479-.001 2.465-.11.484-.336.947-.652 1.264-.309.322-.67.522-.995.609-.678.173-1.068-.112-1.032-.147.02-.072.401.066.932-.152.527-.212 1.136-.796 1.31-1.675.192-.868.107-1.727.121-2.345.003-.619.036-1.003.098-1.007zm-4.213-4.663c.124.01.137 1.332.031 2.952-.107 1.621-.294 2.932-.418 2.93-.123-.001-.137-1.323-.03-2.953.107-1.628.294-2.94.417-2.929zm8.201 6.068c.058-.004.162.429.224 1.15.047.705.076 1.785-.514 2.809-.601 1.017-1.563 1.535-2.23 1.796-.685.263-1.136.306-1.15.253-.019-.065.399-.218 1.019-.54.608-.323 1.454-.847 1.973-1.733.518-.887.554-1.884.586-2.578.02-.705.028-1.153.092-1.157z" fill="#EB996E"/><path d="M124.533 120.215c-.074-.039.424-.842 1.116-2.145a6.775 6.775 0 00.693-2.449c.095-.964-.002-2.026-.445-3.045a6.1 6.1 0 00-1.877-2.435 6.843 6.843 0 00-2.277-1.143c-1.417-.404-2.365-.293-2.364-.376-.002-.027.227-.083.652-.106a6.605 6.605 0 011.794.176 6.682 6.682 0 012.443 1.12 6.276 6.276 0 012.042 2.589c.476 1.087.567 2.262.443 3.261a6.646 6.646 0 01-.823 2.555c-.378.661-.739 1.15-.982 1.491-.247.339-.387.523-.415.507z" fill="#263238"/><path d="M73.35 102.862a2.557 2.557 0 01-2.56 2.556 2.557 2.557 0 01-2.56-2.556 2.557 2.557 0 012.56-2.556 2.557 2.557 0 012.56 2.556z" fill="#FAFAFA"/><path d="M101.287 125.762c-.009.001-.028-.079-.058-.236l-.119-.7-.414-2.7-1.506-9.925a683.003 683.003 0 00-2.423-14.688c-.499-2.756-1.03-5.648-1.67-8.625a115.758 115.758 0 00-1.04-4.517c-.207-.74-.48-1.471-.975-2.014-.49-.545-1.213-.826-1.98-.917-.77-.093-1.563-.044-2.363.01-.798.051-1.59.103-2.377.155l-4.65.302-8.788.563-14.883.923-10.037.578c-1.151.055-2.062.1-2.73.131l-.71.021c-.16.001-.243-.002-.244-.01 0-.01.081-.024.24-.043l.708-.073 2.724-.228c2.414-.18 5.829-.432 10.028-.742 4.248-.297 9.287-.646 14.877-1.035l8.787-.594 4.649-.31 2.377-.157c.794-.052 1.617-.108 2.458-.007.831.096 1.708.423 2.298 1.082.589.651.874 1.46 1.09 2.226.383 1.544.734 3.051 1.04 4.55.635 2.988 1.157 5.885 1.643 8.648a526.003 526.003 0 012.315 14.716c.604 4.197 1.051 7.6 1.342 9.953l.318 2.713.068.707c.012.159.014.242.005.243z" fill="#263238"/></svg>