<svg width="128" height="16" fill="none" xmlns="http://www.w3.org/2000/svg"><path d="M0 1.751h1.026v13.162h8.111v.926H0V1.751zm20.15 9.077h-9.037c.027.818.235 1.55.624 2.193.389.631.912 1.12 1.57 1.47.67.348 1.422.523 2.254.523a4.85 4.85 0 001.892-.362 3.776 3.776 0 001.469-1.107l.583.664a4.468 4.468 0 01-1.73 1.268 5.58 5.58 0 01-2.234.442c-1.047 0-1.98-.228-2.798-.684a5.033 5.033 0 01-1.932-1.892c-.456-.805-.684-1.724-.684-2.757 0-1.02.214-1.932.644-2.737a4.878 4.878 0 011.811-1.912c.765-.456 1.623-.684 2.576-.684.953 0 1.805.228 2.556.684a4.631 4.631 0 011.791 1.872c.443.805.665 1.717.665 2.737l-.02.282zm-4.992-4.69c-.738 0-1.402.168-1.992.504a3.733 3.733 0 00-1.43 1.388 4.532 4.532 0 00-.603 2.013h8.05c-.04-.752-.241-1.422-.604-2.013a3.935 3.935 0 00-1.428-1.388c-.59-.336-1.255-.504-1.993-.504zm12.23 9.782c-.993 0-1.892-.229-2.697-.685a4.97 4.97 0 01-1.871-1.892c-.457-.818-.685-1.737-.685-2.757s.228-1.932.685-2.737a4.932 4.932 0 011.871-1.912c.805-.456 1.704-.684 2.697-.684.993 0 1.885.228 2.677.684a4.89 4.89 0 011.892 1.912c.456.805.684 1.717.684 2.737s-.228 1.939-.684 2.757a4.929 4.929 0 01-1.892 1.892c-.792.456-1.684.684-2.677.684zm0-.906c.805 0 1.523-.188 2.154-.564a3.954 3.954 0 001.51-1.57c.375-.67.563-1.435.563-2.294s-.188-1.623-.564-2.294a3.954 3.954 0 00-1.51-1.57c-.63-.376-1.348-.564-2.153-.564-.805 0-1.53.188-2.173.564a4.143 4.143 0 00-1.51 1.57c-.362.67-.543 1.435-.543 2.294s.18 1.624.543 2.294a4.139 4.139 0 001.51 1.57c.644.376 1.368.564 2.173.564zm13.507-9.761c1.315 0 2.355.382 3.12 1.147.764.765 1.147 1.865 1.147 3.3v6.139h-1.007V9.781c0-1.18-.302-2.08-.905-2.697-.59-.617-1.423-.925-2.496-.925-1.234 0-2.207.368-2.918 1.106-.711.738-1.067 1.731-1.067 2.979v5.595h-1.006V5.333h.966v2.275a4.013 4.013 0 011.61-1.731c.724-.416 1.577-.624 2.556-.624zm8.409.08h1.007V15.84h-1.007V5.333zm.504-2.556a.833.833 0 01-.584-.221.795.795 0 01-.241-.584c0-.228.08-.422.241-.583a.795.795 0 01.584-.242.79.79 0 01.583.242.73.73 0 01.242.563c0 .228-.08.423-.242.584a.795.795 0 01-.583.241zM63.89.906v14.933h-.986v-2.476c-.416.819-1 1.45-1.75 1.892-.752.443-1.604.664-2.557.664-.979 0-1.864-.228-2.656-.684a4.97 4.97 0 01-1.872-1.892c-.443-.805-.664-1.724-.664-2.757 0-1.033.221-1.952.664-2.757a4.79 4.79 0 011.872-1.892c.791-.456 1.677-.684 2.656-.684.94 0 1.778.221 2.516.664a4.707 4.707 0 011.771 1.852V.906h1.007zm-5.232 14.108c.805 0 1.523-.188 2.153-.564a3.953 3.953 0 001.51-1.57c.375-.67.563-1.435.563-2.294s-.188-1.623-.563-2.294a3.954 3.954 0 00-1.51-1.57c-.63-.376-1.348-.564-2.153-.564-.805 0-1.53.188-2.174.564a4.143 4.143 0 00-1.51 1.57c-.361.67-.543 1.435-.543 2.294s.181 1.624.544 2.294a4.131 4.131 0 001.51 1.57c.643.376 1.368.564 2.173.564zm19.412-4.71l-1.892 1.973v3.562h-3.24V1.751h3.24v6.581l6.239-6.581h3.622l-5.836 6.28 6.178 7.808h-3.803l-4.508-5.535zm20.118-5.293V15.84h-2.979c-.557-.503-.912-.456-1.489-.201-.577.241-1.2.362-1.872.362-1.422 0-2.549-.41-3.38-1.228-.833-.818-1.249-2.032-1.249-3.642V5.01h3.14v5.656c0 1.744.731 2.616 2.194 2.616.751 0 1.355-.242 1.811-.724.456-.497.684-1.228.684-2.194V5.01h3.14zm5.907 1.429a3.5 3.5 0 011.51-1.187c.644-.269 1.382-.403 2.214-.403v2.898c-.349-.026-.584-.04-.705-.04-.899 0-1.603.255-2.113.765-.51.496-.765 1.248-.765 2.254v5.112h-3.139V5.011h2.998v1.43zm5.59-1.429h3.14V15.84h-3.14V5.011zm9.194 5.716v5.112h-3.14V.906h3.14v8.452l4.588-4.347h3.744l-5.892 5.293 6.294 5.535h-3.804l-4.93-5.112z" fill="#000E4B"/><path d="M109.844 2.999c.362.335.833.765 1.41.765.576 0 1.046-.43 1.408-.765.362-.35.543-.785.543-1.308a1.55 1.55 0 00-.543-1.208C112.3.161 111.83 0 111.253 0c-.577 0-1.047.168-1.409.503a1.632 1.632 0 00-.543 1.248c0 .496.181.912.543 1.248z" fill="#FFE600"/></svg>