<svg width="20" height="20" fill="none" xmlns="http://www.w3.org/2000/svg"><g clip-path="url(#clip0)" fill="#000E4B" stroke="#fff" stroke-width=".1"><path d="M8.035 9.306l-.12.057.128.036c.747.21 1.298.596 1.663 1.116.365.52.546 1.179.546 1.94 0 1.23-.517 2.106-1.309 2.676-.794.57-1.867.836-2.978.836H.05V3.8h5.753c1.05 0 2.022.149 2.73.596.704.444 1.154 1.186 1.154 2.393 0 .612-.142 1.11-.418 1.52-.275.411-.687.737-1.234.997zm-5.33-3.512h-.05v2.963h2.792c.49 0 .915-.106 1.22-.351.305-.247.48-.628.48-1.16 0-.58-.227-.947-.585-1.167-.353-.216-.828-.285-1.319-.285H2.705zm-.05 8.14v.05h2.941c.554 0 1.066-.097 1.441-.357.378-.263.609-.686.609-1.32 0-.638-.192-1.092-.544-1.385-.35-.291-.85-.416-1.45-.416H2.654v3.428zm17.11-.621c-.33.974-.827 1.69-1.495 2.164-.683.486-1.549.723-2.605.723-1.395 0-2.522-.47-3.3-1.279-.777-.81-1.21-1.961-1.21-3.333v0c0-2.641 1.824-4.651 4.51-4.651 1.383 0 2.453.541 3.178 1.406.726.865 1.108 2.058 1.108 3.362 0 .137-.008.275-.017.406h-6.431v.05c0 .72.19 1.3.57 1.698.38.4.94.613 1.668.613.38 0 .813-.102 1.182-.301.358-.194.66-.48.788-.858h2.054zm-2.226-2.637h.054l-.004-.055c-.053-.596-.236-1.082-.568-1.42-.332-.34-.808-.523-1.433-.523-.597 0-1.098.186-1.46.525-.361.338-.58.825-.622 1.42l-.003.053h4.036zm-4.434-6.232h4.89v1.109h-4.89V4.444z"/></g><defs><clipPath id="clip0"><path fill="#fff" d="M0 0h20v20H0z"/></clipPath></defs></svg>