<svg width="20" height="20" fill="none" xmlns="http://www.w3.org/2000/svg"><path d="M6.02 15.64l-.025.04.039.027A6.86 6.86 0 0010 16.954c.826 0 1.63-.143 2.393-.425l.04-.015-.008-.041a30.76 30.76 0 00-1.332-4.745l-.018-.047-.047.018C7.939 12.877 6.496 14.85 6.02 15.64zm8.315-.304l.017.081.064-.053a6.982 6.982 0 002.367-3.873l.01-.047-.046-.012a10.806 10.806 0 00-2.553-.31c-.322 0-.64.015-.95.046l-.062.006.02.06c.61 1.76.96 3.253 1.133 4.102zm1.355-9.297l-.035-.051-.042.045c-.537.581-1.645 1.586-3.476 2.407l-.046.021.022.046c.106.228.206.453.3.673l.036.084.014.034.037-.003a14.18 14.18 0 011.41-.067c1.233 0 2.317.14 2.95.244l.063.01-.006-.063a6.969 6.969 0 00-1.227-3.38zm-1.397-1.413l.035-.04-.042-.032A6.926 6.926 0 009.02 3.138l-.081.011.047.067a39.83 39.83 0 012.18 3.45l.022.04.041-.017c1.684-.697 2.643-1.59 3.065-2.063zm-7.5-.722l-.025-.036-.04.021a6.998 6.998 0 00-3.393 4.175l-.019.066.069-.002a27.41 27.41 0 005.576-.736l.065-.016-.034-.058a46.692 46.692 0 00-2.199-3.414zm3.236 5.33l-.019-.037-.04.011c-2.963.833-5.797.948-6.86.959h-.052l.002.051a6.921 6.921 0 001.417 3.996l.042.055.04-.057c.73-1.06 2.622-3.394 5.667-4.44l.052-.018-.023-.05c-.072-.154-.148-.31-.226-.47zM18.95 10c0 4.935-4.015 8.95-8.95 8.95S1.05 14.936 1.05 10 5.065 1.05 10 1.05s8.95 4.015 8.95 8.95z" fill="#000E4B" stroke="#fff" stroke-width=".1"/></svg>